<?xml version="1.0" encoding="iso-8859-1"?>
<!-- Generator: Adobe Illustrator 19.0.0, SVG Export Plug-In . SVG Version: 6.00 Build 0)  -->
<svg version="1.1" id="Capa_1" xmlns="http://www.w3.org/2000/svg" xmlns:xlink="http://www.w3.org/1999/xlink" x="0px" y="0px"
	 viewBox="0 0 512.001 512.001" style="enable-background:new 0 0 512.001 512.001;" xml:space="preserve">
<path style="fill:#CD2A00;" d="M496.156,280.647c0,26.392-4.586,51.741-13.036,75.376
	c-29.987,83.846-108.586,145.886-203.361,154.853c-7.809,0.744-15.742,1.126-23.758,1.126
	c-132.633,0-240.155-103.586-240.155-231.354c0-42.548,11.931-78.196,32.735-106.819c17.075-23.479,40.121-42.228,67.453-56.183
	c1.271-0.651,2.562-1.291,3.853-1.921c38.685-18.841,85.582-28.355,136.114-28.355c8.016,0,15.939,0.238,23.758,0.723
	c40.038,2.438,77.173,11.156,108.989,26.031c1.291,0.589,2.572,1.209,3.843,1.828C455.168,146.608,496.156,201.759,496.156,280.647z
	"/>
<path style="fill:#FF3501;" d="M496.156,280.647c0,26.392-4.586,51.741-13.036,75.376
	c-38.602,58.507-103.731,99.175-179.076,106.303c-7.809,0.744-15.742,1.126-23.758,1.126
	c-132.633,0-240.155-103.586-240.155-231.354c0-21.135,2.944-40.565,8.45-58.27c17.075-23.479,40.121-42.228,67.453-56.183
	C155.441,97.532,203.774,87.368,256,87.368c8.016,0,15.939,0.238,23.758,0.723c41.66,2.541,80.179,11.869,112.831,27.859
	C455.168,146.608,496.156,201.759,496.156,280.647z"/>
<path style="fill:#5EAC24;" d="M395.173,193.609l-53.694-48.188c-6.859-6.167-4.194-17.664,4.648-20.009l39.764-10.535
	c0.966-0.256,1.086-1.589,0.177-2.002c-30.992-14.092-67.03-23.673-105.621-26.11l0.158-62.159C280.605,11.072,269.532,0,255.999,0
	l0,0c-13.533,0-24.605,11.072-24.605,24.605l-0.158,62.172c-38.799,2.464-74.74,12.03-105.827,26.327
	c-1.834,0.843-1.552,3.536,0.414,3.991l33.861,7.85c9.245,2.138,12.024,14.224,4.679,20.35l-51.111,42.662
	c-4.7,3.915-0.599,11.58,5.165,9.638l99.795-33.716c6.167-2.076,12.788,1.539,14.524,7.933l17.581,64.819
	c1.498,5.506,9.152,5.444,10.557-0.093l16.29-64.168c1.704-6.735,8.77-10.433,15.112-7.923l97.316,38.581
	C395.286,205.292,399.759,197.74,395.173,193.609z"/>
<g>
</g>
<g>
</g>
<g>
</g>
<g>
</g>
<g>
</g>
<g>
</g>
<g>
</g>
<g>
</g>
<g>
</g>
<g>
</g>
<g>
</g>
<g>
</g>
<g>
</g>
<g>
</g>
<g>
</g>
</svg>
